#!OML:ASF Y:\EmotionMaleHayes\Project 1\Capture day 1\Session 1\Male1.ASF
:FULLY-SPECIFIED
:DEGREES
209
root 43.9958 16.7758 -1.2635 461.932 84.0692 474.056
lowerback 12.4649 0.811061 -8.88673
upperback 3.19268 0.0496657 -1.86985
thorax -3.60992 0.152358 3.02707
lowerneck -26.2272 1.3432 1.24929
upperneck 18.5424 1.44023 -0.24704
head 10.233 0.724475 -0.0595314
rclavicle -3.384e-015 -3.57812e-015
rhumerus -55.733 -4.23804 -67.1645
rradius 31.2582
rwrist 0.316834
rhand -12.2419 -34.7329
rfingers 7.12502
rthumb 13.8239 -64.2535
lclavicle -3.384e-015 -3.57812e-015
lhumerus -22.653 -22.5304 81.9331
lradius 78.4074
lwrist 7.98015
lhand -26.2552 -26.1798
lfingers 7.12502
lthumb 0.299271 3.79971
rfemur -3.31653 -0.539216 12.3055
rtibia 27.7065
rfoot -14.4661 -4.14726
rtoes 9.49588
lfemur 11.8698 3.02255 -22.082
ltibia 29.7187
lfoot -20.905 3.06921
ltoes -3.12485
210
root 44.0239 16.7824 -1.20386 471.984 84.9372 484.009
lowerback 13.0295 0.537509 -8.13079
upperback 3.07007 -0.278555 -1.45182
thorax -4.01751 -0.00214936 3.0973
lowerneck -26.4979 1.3904 1.51337
upperneck 18.6928 1.47855 -0.563298
head 10.34 0.720288 -0.20798
rclavicle 1.52738e-015 -2.06736e-014
rhumerus -54.8679 -4.50328 -67.3593
rradius 31.1205
rwrist 0.872269
rhand -11.8577 -34.57
rfingers 7.12502
rthumb 14.1941 -64.065
lclavicle 1.52738e-015 -2.06736e-014
lhumerus -23.9225 -21.6322 82.4438
lradius 77.8946
lwrist 8.38978
lhand -26.4221 -25.0929
lfingers 7.12502
lthumb 0.138028 4.88682
rfemur -3.13723 -0.163598 14.0488
rtibia 27.5358
rfoot -14.7957 -5.0539
rtoes 10.3404
lfemur 11.2068 2.53966 -20.2822
ltibia 30.8086
lfoot -20.5365 2.78269
ltoes -5.56424
211
root 44.102 16.8016 -1.17293 471.381 84.642 483.41
lowerback 12.8544 0.483551 -8.56234
upperback 3.16291 -0.379221 -1.48662
thorax -3.80611 -0.0568982 3.31762
lowerneck -26.5479 1.43014 1.41378
upperneck 18.605 1.50088 -0.287615
head 10.3136 0.75829 -0.0890095
rclavicle -1.84303e-015 1.03368e-014
rhumerus -53.9253 -4.69606 -67.6747
rradius 31.0147
rwrist 1.32522
rhand -11.5603 -34.4164
rfingers 7.12502
rthumb 14.4806 -63.8911
lclavicle -1.84303e-015 1.03368e-014
lhumerus -25.0412 -20.8643 82.8983
lradius 77.2331
lwrist 9.10039
lhand -26.6636 -23.8731
lfingers 7.12502
lthumb -0.0951841 6.10661
rfemur -2.59204 -0.256696 13.8055
rtibia 27.0731
rfoot -14.7471 -5.13768
rtoes 8.99577
lfemur 11.2196 2.62395 -20.3778
ltibia 31.2752
lfoot -19.8908 2.78196
ltoes -8.61747
212
root 44.1746 16.8211 -1.14209 474.798 85.4305 486.874
lowerback 12.7227 0.388169 -7.83738
upperback 3.24472 -0.388722 -1.23108
thorax -3.65379 -0.0773356 3.18181
lowerneck -26.2937 1.54207 1.35718
upperneck 18.2182 1.59119 0.068598
head 10.1262 0.841021 0.0593092
rclavicle -2.97711e-015 -1.47101e-014
rhumerus -53.0708 -4.62781 -68.2333
rradius 31.2289
rwrist 1.426
rhand -11.0129 -34.6236
rfingers 7.12502
rthumb 15.0081 -64.0597
lclavicle -2.97711e-015 -1.47101e-014
lhumerus -26.1049 -20.1177 83.3024
lradius 76.4448
lwrist 9.7352
lhand -26.8364 -22.8152
lfingers 7.12502
lthumb -0.26212 7.16442
rfemur -1.9719 0.14836 15.0053
rtibia 26.5556
rfoot -15.0647 -4.85382
rtoes 13.5278
lfemur 11.2199 2.79495 -19.0316
ltibia 31.7991
lfoot -19.072 2.60322
ltoes -10.5027
213
root 44.2308 16.8393 -1.11427 472.518 84.4433 484.464
lowerback 13.0773 0.392321 -8.84445
upperback 2.91731 -0.585119 -1.50976
thorax -4.16091 -0.137764 3.48586
lowerneck -25.9676 1.59858 1.66693
upperneck 18.3554 1.62714 -0.204234
head 10.1253 0.847031 -0.0840434
rclavicle 4.75064e-015 2.70347e-014
rhumerus -52.843 -4.43834 -68.8492
rradius 31.7348
rwrist 1.47961
rhand -10.3559 -34.8302
rfingers 7.12502
rthumb 15.6409 -64.2179
lclavicle 4.75064e-015 2.70347e-014
lhumerus -27.6641 -19.5375 83.8065
lradius 75.7047
lwrist 10.4773
lhand -26.9262 -21.8127
lfingers 7.12502
lthumb -0.348798 8.16675
rfemur -1.65212 -0.158199 13.8379
rtibia 26.2038
rfoot -14.978 -4.90891
rtoes 11.1671
lfemur 10.7026 2.71512 -20.0453
ltibia 32.7014
lfoot -18.3001 2.47294
ltoes -11.8153
214
root 44.2604 16.8653 -1.06954 480.893 85.8438 492.573
lowerback 13.0831 0.279785 -7.56633
upperback 2.86396 -0.559995 -1.01265
thorax -4.23802 -0.140851 3.29107
lowerneck -26.0756 1.66415 1.74937
upperneck 18.3286 1.68537 -0.213176
head 10.1357 0.878188 -0.0907086
rclavicle 9.38792e-016 -1.63003e-014
rhumerus -51.9516 -4.48951 -69.3907
rradius 32.0876
rwrist 1.70031
rhand -9.86745 -34.8441
rfingers 7.12502
rthumb 16.1113 -64.1944
lclavicle 9.38792e-016 -1.63003e-014
lhumerus -28.5168 -18.8952 84.1282
lradius 74.8461
lwrist 11.544
lhand -26.9473 -20.8154
lfingers 7.12502
lthumb -0.369174 9.16403
rfemur -1.78884 0.620875 16.1486
rtibia 25.9465
rfoot -15.1136 -5.66391
rtoes 10.8429
lfemur 9.7917 2.8371 -17.6892
ltibia 33.9299
lfoot -17.3947 2.05634
ltoes -12.3862
